HIERARCHY
ROOT Hips
{
	OFFSET 0.00000 0.00000 0.00000
	CHANNELS 6 Xposition Yposition Zposition Zrotation Yrotation Xrotation 
	JOINT LHipJoint
	{
		OFFSET 0 0 0
		CHANNELS 3 Zrotation Yrotation Xrotation
		JOINT LeftUpLeg
		{
			OFFSET 1.61024 -1.73873 0.75100
			CHANNELS 3 Zrotation Yrotation Xrotation
			JOINT LeftLeg
			{
				OFFSET 2.29819 -6.31424 0.00000
				CHANNELS 3 Zrotation Yrotation Xrotation
				JOINT LeftFoot
				{
					OFFSET 2.76618 -7.60002 0.00000
					CHANNELS 3 Zrotation Yrotation Xrotation
					JOINT LeftToeBase
					{
						OFFSET 0.16838 -0.46263 2.02361
						CHANNELS 3 Zrotation Yrotation Xrotation
						End Site
						{
							OFFSET 0.00000 -0.00000 1.04662
						}
					}
				}
			}
		}
	}
	JOINT RHipJoint
	{
		OFFSET 0 0 0
		CHANNELS 3 Zrotation Yrotation Xrotation
		JOINT RightUpLeg
		{
			OFFSET -1.46153 -1.73873 0.75100
			CHANNELS 3 Zrotation Yrotation Xrotation
			JOINT RightLeg
			{
				OFFSET -2.38373 -6.54924 0.00000
				CHANNELS 3 Zrotation Yrotation Xrotation
				JOINT RightFoot
				{
					OFFSET -2.80314 -7.70157 0.00000
					CHANNELS 3 Zrotation Yrotation Xrotation
					JOINT RightToeBase
					{
						OFFSET -0.16142 -0.44349 2.02101
						CHANNELS 3 Zrotation Yrotation Xrotation
						End Site
						{
							OFFSET -0.00000 -0.00000 1.04381
						}
					}
				}
			}
		}
	}
	JOINT LowerBack
	{
		OFFSET 0 0 0
		CHANNELS 3 Zrotation Yrotation Xrotation
		JOINT Spine
		{
			OFFSET -0.01629 1.66985 0.14750
			CHANNELS 3 Zrotation Yrotation Xrotation
			JOINT Spine1
			{
				OFFSET 0.02086 1.62378 0.20980
				CHANNELS 3 Zrotation Yrotation Xrotation
				JOINT Neck
				{
					OFFSET 0 0 0
					CHANNELS 3 Zrotation Yrotation Xrotation
					JOINT Neck1
					{
						OFFSET -0.05690 1.78719 0.08702
						CHANNELS 3 Zrotation Yrotation Xrotation
						JOINT Head
						{
							OFFSET 0.16035 1.73871 -0.38470
							CHANNELS 3 Zrotation Yrotation Xrotation
							End Site
							{
								OFFSET 0.05645 1.80914 -0.14081
							}
						}
					}
				}
				JOINT LeftShoulder
				{
					OFFSET 0 0 0
					CHANNELS 3 Zrotation Yrotation Xrotation
					JOINT LeftArm
					{
						OFFSET 2.83089 1.66494 -0.46008
						CHANNELS 3 Zrotation Yrotation Xrotation
						JOINT LeftForeArm
						{
							OFFSET 5.54893 -0.00000 -0.00000
							CHANNELS 3 Zrotation Yrotation Xrotation
							JOINT LeftHand
							{
								OFFSET 3.02898 -0.00000 -0.00000
								CHANNELS 3 Zrotation Yrotation Xrotation
								JOINT LeftFingerBase
								{
									OFFSET 0 0 0
									CHANNELS 3 Zrotation Yrotation Xrotation
									JOINT LeftHandIndex1
									{
										OFFSET 0.64095 -0.00000 -0.00000
										CHANNELS 3 Zrotation Yrotation Xrotation
										End Site
										{
											OFFSET 0.51675 -0.00000 -0.00000
										}
									}
								}
								JOINT LThumb
								{
									OFFSET 0 0 0
									CHANNELS 3 Zrotation Yrotation Xrotation
									End Site
									{
										OFFSET 0.52464 -0.00000 0.52464
									}
								}
							}
						}
					}
				}
				JOINT RightShoulder
				{
					OFFSET 0 0 0
					CHANNELS 3 Zrotation Yrotation Xrotation
					JOINT RightArm
					{
						OFFSET -2.84442 1.45761 -0.18088
						CHANNELS 3 Zrotation Yrotation Xrotation
						JOINT RightForeArm
						{
							OFFSET -5.35190 -0.00000 -0.00000
							CHANNELS 3 Zrotation Yrotation Xrotation
							JOINT RightHand
							{
								OFFSET -3.02531 -0.00000 -0.00000
								CHANNELS 3 Zrotation Yrotation Xrotation
								JOINT RightFingerBase
								{
									OFFSET 0 0 0
									CHANNELS 3 Zrotation Yrotation Xrotation
									JOINT RightHandIndex1
									{
										OFFSET -0.78389 -0.00000 -0.00000
										CHANNELS 3 Zrotation Yrotation Xrotation
										End Site
										{
											OFFSET -0.63199 -0.00000 -0.00000
										}
									}
								}
								JOINT RThumb
								{
									OFFSET 0 0 0
									CHANNELS 3 Zrotation Yrotation Xrotation
									End Site
									{
										OFFSET -0.64164 -0.00000 0.64164
									}
								}
							}
						}
					}
				}
			}
		}
	}
}
MOTION
Frames: 5
Frame Time: .0083333
-2.4696 17.5277 0.4659 -889.2920 56.7221 -861.8440 0.0000 0.0000 0.0000 3.8240 -28.3591 -48.2556 1.4402 7.5870 21.4664 -0.0978 5.5622 -1.4571 2.2938 -9.4530 -27.2231 0.0000 0.0000 0.0000 16.8792 7.8386 -38.6811 -1.6626 -8.1248 23.0939 1.1186 -20.8787 -18.6507 -0.6237 5.0538 -14.0622 -4.9852 -2.7017 21.5271 -10.2846 -2.3573 11.5826 -7.8680 -0.1915 0.5218 -11.5028 -9.7379 -9.1909 28.3231 -14.0985 3.7945 9.8204 -5.8769 5.8358 -0.0000 -0.0000 0.0000 -83.6439 -70.7552 74.4784 143.5954 -45.7894 -104.1882 -0.0000 0.0000 -83.0001 34.1468 29.8944 18.6772 -7.1250 0.0000 -0.0000 4.0873 64.7216 1.9521 0.0000 -0.0000 0.0000 -94.0100 50.8576 -122.6057 -9.6064 16.1215 -1.3636 0.0000 0.0000 83.1523 -28.6928 15.6385 -8.3928 7.1250 -0.0000 -0.0000 -0.6802 -12.2821 -0.5200
-2.4786 17.5296 0.4675 -889.2020 56.9254 -861.8050 0.0000 0.0000 0.0000 3.8625 -28.3909 -48.1602 1.4377 7.5807 21.4477 -0.1072 5.8226 -1.5211 2.3097 -9.4834 -27.3195 0.0000 0.0000 0.0000 16.8282 7.9331 -38.6292 -1.6533 -8.1032 23.0279 1.1265 -20.8609 -18.4848 -0.6337 5.0934 -14.1751 -4.9852 -2.7017 21.5271 -10.2846 -2.3573 11.5826 -7.8680 -0.1915 0.5218 -11.5028 -9.7379 -9.1909 28.3231 -14.0985 3.7945 9.8204 -5.8769 5.8358 -0.0000 -0.0000 0.0000 -83.6439 -70.7552 74.4784 143.5954 -45.7894 -104.1882 -0.0000 0.0000 -83.0001 34.1468 29.8944 18.6772 -7.1250 0.0000 -0.0000 4.0873 64.7216 1.9521 0.0000 -0.0000 0.0000 -94.0100 50.8576 -122.6057 -9.6064 16.1215 -1.3636 0.0000 0.0000 83.1523 -28.6928 15.6385 -8.3928 7.1250 -0.0000 -0.0000 -0.6802 -12.2821 -0.5200
-2.4878 17.5310 0.4698 -889.1230 57.0890 -861.7880 0.0000 0.0000 0.0000 3.8711 -28.3975 -48.0525 1.4322 7.5668 21.4059 -0.1152 6.0324 -1.6230 2.2681 -9.4035 -27.0660 0.0000 0.0000 0.0000 16.7744 8.0321 -38.5683 -1.6475 -8.0897 22.9870 1.1021 -20.7443 -18.5474 -0.5896 4.9161 -13.6695 -4.9852 -2.7017 21.5271 -10.2846 -2.3573 11.5826 -7.8680 -0.1915 0.5218 -11.5028 -9.7379 -9.1909 28.3231 -14.0985 3.7945 9.8204 -5.8769 5.8358 -0.0000 -0.0000 0.0000 -83.6439 -70.7552 74.4784 143.5954 -45.7894 -104.1882 -0.0000 0.0000 -83.0001 34.1468 29.8944 18.6772 -7.1250 0.0000 -0.0000 4.0873 64.7216 1.9521 0.0000 -0.0000 0.0000 -94.0100 50.8576 -122.6057 -9.6064 16.1215 -1.3636 0.0000 0.0000 83.1523 -28.6928 15.6385 -8.3928 7.1250 -0.0000 -0.0000 -0.6802 -12.2821 -0.5200
-2.4980 17.5307 0.4731 -889.0760 57.2436 -861.7680 0.0000 0.0000 0.0000 3.8122 -28.3102 -47.9841 1.4238 7.5455 21.3418 -0.1196 6.1432 -1.6965 2.2136 -9.2974 -26.7303 0.0000 0.0000 0.0000 16.6981 8.1461 -38.5706 -1.6466 -8.0875 22.9803 1.0980 -20.7179 -18.5391 -0.5804 4.8783 -13.5617 -4.9852 -2.7017 21.5271 -10.2846 -2.3573 11.5826 -7.8680 -0.1915 0.5218 -11.5028 -9.7379 -9.1909 28.3231 -14.0985 3.7945 9.8204 -5.8769 5.8358 -0.0000 -0.0000 0.0000 -83.6439 -70.7552 74.4784 143.5954 -45.7894 -104.1882 -0.0000 0.0000 -83.0001 34.1468 29.8944 18.6772 -7.1250 0.0000 -0.0000 4.0873 64.7216 1.9521 0.0000 -0.0000 0.0000 -94.0100 50.8576 -122.6057 -9.6064 16.1215 -1.3636 0.0000 0.0000 83.1523 -28.6928 15.6385 -8.3928 7.1250 -0.0000 -0.0000 -0.6802 -12.2821 -0.5200
-2.5074 17.5316 0.4764 -889.1460 57.4099 -861.8470 0.0000 0.0000 0.0000 3.6635 -28.2239 -47.9219 1.4147 7.5225 21.2727 -0.1222 6.2102 -1.6995 2.1999 -9.2705 -26.6453 0.0000 0.0000 0.0000 16.5526 8.2377 -38.5907 -1.6484 -8.0917 22.9929 1.1064 -20.7332 -18.4528 -0.5831 4.8895 -13.5938 -4.9852 -2.7017 21.5271 -10.2846 -2.3573 11.5826 -7.8680 -0.1915 0.5218 -11.5028 -9.7379 -9.1909 28.3231 -14.0985 3.7945 9.8204 -5.8769 5.8358 -0.0000 -0.0000 0.0000 -83.6439 -70.7552 74.4784 143.5954 -45.7894 -104.1882 -0.0000 0.0000 -83.0001 34.1468 29.8944 18.6772 -7.1250 0.0000 -0.0000 4.0873 64.7216 1.9521 0.0000 -0.0000 0.0000 -94.0100 50.8576 -122.6057 -9.6064 16.1215 -1.3636 0.0000 0.0000 83.1523 -28.6928 15.6385 -8.3928 7.1250 -0.0000 -0.0000 -0.6802 -12.2821 -0.5200
